<svg xmlns="http://www.w3.org/2000/svg" width="346" height="470" viewBox="0 0 346 470">
  <g id="Grupo_21" data-name="Grupo 21" transform="translate(-4333.346 150.38)">
    <g id="pose_sitting_crossed_legs" data-name="pose/sitting/crossed_legs" transform="translate(4333.346 -59.38)">
      <path id="_Background" data-name="ðŸŽ¨ Background" d="M284.754,154.571a24.132,24.132,0,0,0-5.2-.644c-6.017-.354-12.152,2.515-18.052,3.808-2.583.638-5.317,1.39-8.081,1.95-2.454.333-4.99.583-7.54.742-2.061.062-4.46-.1-5.164,2.071a31.516,31.516,0,0,1-11.76.455,6.963,6.963,0,0,0,.2-3.93c.193-.321.456-.756.6-1.048h-.475c-6.932-2.775-14.429-4.67-21.4-7.545-9.1-3.278-22.492-9.612-33-13.938a45.67,45.67,0,0,0,.674-11.721l.422-.341a7.792,7.792,0,0,1,.745-2.35,22.489,22.489,0,0,0,.7-4.6,33.473,33.473,0,0,0-.063-10.74c-.326-4.683-3.483-8.292-6.886-11.188-4.179-4.133-8.363-8.165-12.442-12.458-22.578-23.018-24.363-52.008-59.708-60.819l-.017-.137c-.279-.311-.392-.557-.71-.066-1.167-.447-2.622-.41-3.6-1.166a13.961,13.961,0,0,1-3.771-5.578c-.62-4.1-.181-10.415-3.772-13.038C82.466-.1,61.276-1.8,59.449,3.425a7.328,7.328,0,0,0-2,4.074c-1.181,2.233-1.926,4.71-3.115,6.977C51.8,19.562,50.163,18.435,45.7,19.6c-.485-1.08-1.956-.862-3.028-.706C29.689,20.716,13.861,25.7,8.3,37.9l.473-.06C-.819,55.864,5.4,78.79,7.12,97.893a160.412,160.412,0,0,1-3.972,49.882c-4.63,16.8-4.9,35.6,4.291,50.809.934,1.741,2.071,4.2,4.082,3.109a12,12,0,0,0,4.051,1.911,12.942,12.942,0,0,0,1.453,1.162,9.642,9.642,0,0,0,.86-.437c1.5,2.144,83.968,9.307,92.525,10.419,7.54.909,17.5,3.231,23.646-2.208,5.078-1.451,10.391-5.228,14.448-8.978,2.462,35.712,3.824,108.849,6.021,109.358.961.326,2.259.716,3.348,1.028.007,2.566.2,5.481,0,8-.337,2.849-1.192,6.212-1.579,9.207-1.662-.111-2.151,1.556-2.344,2.689-1.435,9.356-1.392,16.9-1.289,27.182,16.872,9.938,36.646,15.4,55.63,21.827,1.818,1.366,5.759-.112,7.858-.481,7.289-1.435,15.572-5.681,13.732-13.465-1.347-5.861-7-9.233-11.765-12.682-5.209-3.774-10.7-7.545-15.492-12.039a89.066,89.066,0,0,1-9.919-10.516c-1.422-1.9-2.938-5.022-4.85-6.423,2.02-2.4-2.062-.15-3.607-.012a118.716,118.716,0,0,0-3.385-12.494l1.312.059c4.308-4.024,6.723-23.34,7.023-29.071,2.16-37.357,2.108-80.415-6.555-111.876,6.581,4.052,13.8,7.437,20.341,11.445,4.127,2.418,8.314,5.774,12.939,6.947a1.122,1.122,0,0,0,2.006.354c.828.1,1.895-.241,1.986-.619.847-1.732,2.074-3.6,1.926-5.48l-1.136-2.636c2.545,1.035,5.313,3.212,8.03,3.412,5.488,18.327,16.3,8.06,26.706.928,6.279-4.388,13.148-9.234,19.757-13.912,5.607-4.46,16.553-8.693,11.187-17.528" transform="translate(57.279 -6.115)" fill="#fff"/>
      <path id="_Ink" data-name="ðŸ– Ink" d="M212.328,378a5.211,5.211,0,0,1-2.291-.479,65.179,65.179,0,0,1-8-2.273c-1.147-.379-2.333-.771-3.493-1.122-7.63-2.52-15.233-5.279-22.6-8.2-7.448-2.954-14.85-6.152-22-9.5a1.541,1.541,0,0,1-.834-1.371c.028-.8.013-2.214-.005-4.007v-.007c-.044-4.333-.111-10.88.333-16.405a37.014,37.014,0,0,1,1.116-7.112,7.806,7.806,0,0,1,.97-2.218,1.917,1.917,0,0,1,1.312-.921,53.848,53.848,0,0,0,1-7.9c.14-2.444.156-5.055.048-7.984a42.18,42.18,0,0,0-4.773-1.274c-.443-.139-.952-.247-1.49-.361a15.64,15.64,0,0,1-2.028-.524,3.533,3.533,0,0,1-1.576-.994.913.913,0,0,1-.464-.355.978.978,0,0,1-.137-.654c.825-7.721,1.489-15.8,1.972-24,.395-6.568.671-13.354.82-20.169.143-6.563.174-13.353.09-20.182-.08-6.547-.268-13.335-.558-20.177-.277-6.522-.655-13.3-1.125-20.152a46.467,46.467,0,0,1-6.081,4.488,34.477,34.477,0,0,1-3.329,1.8,28.967,28.967,0,0,1-3.516,1.381,10.825,10.825,0,0,1-4.906,2.649,31.521,31.521,0,0,1-5.633.9c-.581.036-1.186.054-1.8.054a63.728,63.728,0,0,1-8.957-.851c-1.011-.144-2.056-.294-3.085-.423a57.908,57.908,0,0,0-7.279-.432c-2.433,0-5.06.128-8.031.392-2.759.245-5.585.588-8.016.89l-2.651.33c-3.741.409-7.135.711-10.376.922-3.731.243-7.173.361-10.521.361-3.238,0-6.385-.116-9.353-.345-3.2-.246-6.305-.633-9.24-1.148a79.14,79.14,0,0,1-9.021-2.12,67.709,67.709,0,0,1-8.694-3.261c-.128.011-.26.017-.393.017a6.646,6.646,0,0,1-2.524-.569,13.592,13.592,0,0,1-2.526-1.425,23.5,23.5,0,0,1-4.1-3.725,1,1,0,0,1-.531.157,2.831,2.831,0,0,1-1.607-.923c-.144-.128-.28-.248-.413-.354a17.6,17.6,0,0,1-1.878-.679,10.227,10.227,0,0,1-1.794-.98,2.782,2.782,0,0,1-.862.144c-1.983,0-3.227-2.4-4.136-4.155-.111-.215-.226-.437-.336-.641a51.563,51.563,0,0,1-3.345-6.81,49.658,49.658,0,0,1-2.175-6.811,52.974,52.974,0,0,1-1.171-6.818A62.356,62.356,0,0,1,0,164.831c.01-2.192.121-4.432.339-6.85.195-2.155.471-4.4.845-6.875.7-4.592,1.636-9.3,2.545-13.846h0c1.056-5.281,2.147-10.743,2.893-16.184.4-2.931.673-5.613.828-8.2a77.485,77.485,0,0,0,.076-8.284c.072-2.027.063-4.1-.027-6.348-.081-2-.225-4.088-.441-6.383-.4-4.263-1-8.612-1.572-12.818v0c-.524-3.83-1.066-7.791-1.46-11.674A108.094,108.094,0,0,1,3.4,55.776a62.525,62.525,0,0,1,1.05-11.432A50.317,50.317,0,0,1,5.866,38.71a47.246,47.246,0,0,1,2.145-5.566,16.41,16.41,0,0,1,3.32-6.668,28.275,28.275,0,0,1,5.933-5.433,43.9,43.9,0,0,1,7.29-4.081,48.983,48.983,0,0,1,7.391-2.614c.668-.11,1.765-.4,3.035-.741,2.832-.754,6.711-1.788,9.444-1.788a5.856,5.856,0,0,1,2.085.309,1.832,1.832,0,0,1,1.137,1.066,1.985,1.985,0,0,1,1.143-.712,5.8,5.8,0,0,1,1.38-.13A5.869,5.869,0,0,0,53.553,9.46a32.531,32.531,0,0,0,2.3-4.795C56.883,2.162,57.777,0,58.979,0a1.24,1.24,0,0,1,.608.176c1.287,1.117.212,2.931-.737,4.531a9.754,9.754,0,0,0-.977,1.925l-.235.461A21.016,21.016,0,0,1,55.8,10.148a8.631,8.631,0,0,1-2.625,2.384,2.326,2.326,0,0,1-1.191.6,10.631,10.631,0,0,1-1.5.2h0c-.915.078-1.779.151-2.109.617a1.059,1.059,0,0,0-.084.914,9.877,9.877,0,0,0,1.193,2.5,14.646,14.646,0,0,0,1.885,2.3,26.827,26.827,0,0,0,5.206,3.952,50.229,50.229,0,0,0,6.05,3.055c1.8.773,3.689,1.483,5.608,2.111a29.554,29.554,0,0,0,5.2,1.4,32.535,32.535,0,0,0,5.662.5,27.843,27.843,0,0,0,6.2-.668,19.747,19.747,0,0,0,5.558-2.137,14.048,14.048,0,0,0,4.292-3.8,13.734,13.734,0,0,0,2.4-5.663,7.49,7.49,0,0,1-4.036-2.438,12.734,12.734,0,0,1-1.577-2.128,14.719,14.719,0,0,1-1.17-2.458A12.351,12.351,0,0,1,89.951,6.8a7.547,7.547,0,0,1,.342-2.071,5.23,5.23,0,0,1,.922-1.723,19.359,19.359,0,0,0,1.069,6.058,11.97,11.97,0,0,0,3.4,5.065l.178.163a6.494,6.494,0,0,0,.871.7,1.86,1.86,0,0,0,.985.339,1.175,1.175,0,0,0,.181-.014,1.163,1.163,0,0,1,.97-.517,1.759,1.759,0,0,1,1.542,1.138,45.369,45.369,0,0,1,7.481,1.948,42.836,42.836,0,0,1,6.584,2.994,45.824,45.824,0,0,1,5.817,3.894,54.913,54.913,0,0,1,5.179,4.645c1.571,1.593,3.1,3.311,4.671,5.25,1.4,1.729,2.8,3.6,4.292,5.707,2.765,3.926,5.409,8.131,7.965,12.2h0c2.612,4.154,5.312,8.449,8.161,12.481,1.534,2.172,2.986,4.094,4.438,5.876,1.631,2,3.22,3.775,4.859,5.425,3.129,3.288,6.42,6.519,9.6,9.644.921.9,1.873,1.839,2.819,2.773a22.837,22.837,0,0,1,2.933,2.768,19.646,19.646,0,0,1,2.321,3.218,16.4,16.4,0,0,1,2.221,7.6,29.29,29.29,0,0,1,.188,4.6c-.046,1.4-.178,2.908-.4,4.607l-.028.278q-.027.274-.054.561a13.284,13.284,0,0,1-1.154,5.078,4.63,4.63,0,0,0-.1.516,1.755,1.755,0,0,1-.491,1.185,46.163,46.163,0,0,1-.584,10.569l1.548.69c9.766,4.342,17.947,7.807,25.746,10.907,9.351,3.716,17.951,6.819,26.291,9.484a1.7,1.7,0,0,1,.3-.029.8.8,0,0,1,.794.471,1.491,1.491,0,0,1,.036.938,2.124,2.124,0,0,1-.471.908,6.473,6.473,0,0,1-.013,2.854,21.442,21.442,0,0,0,3.031.207,29.546,29.546,0,0,0,3.384-.207c1.011-.116,2.108-.284,3.353-.513a3.314,3.314,0,0,1,2.26-1.839,12.381,12.381,0,0,1,3.058-.325h.007l.477-.012c2.655-.166,5.264-.426,7.755-.774,4.221-.941,8.46-2.1,12.56-3.219,2.059-.563,4.189-1.144,6.29-1.691a23.834,23.834,0,0,1,6.444-.869,26.1,26.1,0,0,1,6.507.831,18.153,18.153,0,0,1,1.936,2.565,9.691,9.691,0,0,1,1.438,3.48,7.837,7.837,0,0,1-.087,3.276,10.279,10.279,0,0,1-2.407,4.389,15.645,15.645,0,0,1-1.964,1.85,19.294,19.294,0,0,1-2.3,1.569c-8.253,5.839-17.053,12.058-25.935,18.256l-.63.449c-.451.322-.923.661-1.339.961a90.5,90.5,0,0,1-8.354,5.558,24.978,24.978,0,0,1-4.072,1.867,14.435,14.435,0,0,1-1.965.527,10.292,10.292,0,0,1-1.9.187,7.678,7.678,0,0,1-2.885-.54,8.069,8.069,0,0,1-2.63-1.761,13.365,13.365,0,0,1-2.322-3.2,26.907,26.907,0,0,1-1.96-4.842A10.29,10.29,0,0,1,225.6,180.8c-.548-.292-1.115-.593-1.684-.835.408,1.89-.613,3.8-1.513,5.484-.121.226-.245.459-.364.688A1.983,1.983,0,0,1,221,187.224a3.5,3.5,0,0,1-1.5.305h-.042a1.828,1.828,0,0,1-1.292.5,2.3,2.3,0,0,1-1.068-.265,1.9,1.9,0,0,1-.779-.736,23.9,23.9,0,0,1-4.859-2.056c-1.547-.842-3.062-1.817-4.527-2.76-1.107-.712-2.251-1.449-3.4-2.121-3.467-2.1-7.093-4.055-10.6-5.943l-.01-.005c-2.493-1.343-5.071-2.731-7.571-4.162,1.217,5.029,2.291,10.269,3.191,15.574.859,5.059,1.588,10.342,2.167,15.7.548,5.072.981,10.388,1.287,15.8.286,5.067.471,10.406.55,15.868.138,9.568-.037,19.973-.537,31.808-.445,10.547-1.089,21.01-1.765,31.694l-.019.38a25.6,25.6,0,0,1-.491,4.064A12.576,12.576,0,0,1,188.6,304.1a12.345,12.345,0,0,1-2.036,2.788,24.211,24.211,0,0,1-3.176,2.727,81.855,81.855,0,0,1,2.291,8.21c.1.294.356.329.607.362.307.041.6.08.6.563a6.089,6.089,0,0,1,1.338-.14,5.836,5.836,0,0,1,1.751.246,2.105,2.105,0,0,1,1.21.82,1.584,1.584,0,0,1-.087,1.607,27.9,27.9,0,0,1,3.1,3.1c.958,1.1,1.875,2.272,2.762,3.405l0,0c1.088,1.391,2.213,2.828,3.426,4.15a53.366,53.366,0,0,0,4.47,4.709c1.485,1.394,3.1,2.776,4.935,4.225,3.407,2.689,7.056,5.186,10.584,7.6l.181.124a34.349,34.349,0,0,1,5.711,3.606,22.666,22.666,0,0,1,4.028,4.031,14.442,14.442,0,0,1,2.281,4.241,10.092,10.092,0,0,1,.469,4.235,9.528,9.528,0,0,1-1.183,3.636,12.494,12.494,0,0,1-2.756,3.3,19.815,19.815,0,0,1-4.375,2.8A32.861,32.861,0,0,1,218.7,376.6l-.194.045c-.558.134-1.129.3-1.733.478A16.409,16.409,0,0,1,212.328,378Zm-55.657-51.744a125.1,125.1,0,0,0-.751,13.771c-.016,4.105.125,8.621.43,13.806,7.261,3.278,14.679,6.41,22.05,9.308,7.42,2.917,14.989,5.676,22.5,8.2a38.3,38.3,0,0,0,4.282,1.4,24.944,24.944,0,0,1,6.294,2.412,30.566,30.566,0,0,0,7.918-1.6,32.489,32.489,0,0,0,7.277-3.537,9.143,9.143,0,0,0,2.944-3.15,6.749,6.749,0,0,0,.792-3.485,10.511,10.511,0,0,0-2.31-5.786A17.579,17.579,0,0,0,223,353.1a54.963,54.963,0,0,1-4.993-2.573c-1.594-.925-3.207-1.963-4.795-3.085a81.246,81.246,0,0,1-8.955-7.4A122.294,122.294,0,0,1,189.151,322.4c-.43.046-.87.088-1.257.125-1.111.106-2.26.216-3.4.424a40.909,40.909,0,0,0-8.267,2.286,46.486,46.486,0,0,0-7.669,3.872c-.438.273-.87.569-1.287.857a12.9,12.9,0,0,1-3.505,1.907,4.95,4.95,0,0,1-3.836-.175,5.63,5.63,0,0,1-1.748-1.281A5.546,5.546,0,0,1,156.671,326.256Zm2.744-17.3a15.076,15.076,0,0,0,.572,4.351v0c.239,1.092.51,2.331.7,3.65a21.846,21.846,0,0,1,.209,4.258c-.065.491-.158,1-.248,1.489h0a12.848,12.848,0,0,0-.317,3.627,3.59,3.59,0,0,0,.666,1.84,1.5,1.5,0,0,0,1.2.537,5.231,5.231,0,0,0,2.49-.919c.911-.545,1.862-1.253,2.781-1.938a14.383,14.383,0,0,1,3.276-2.08,41.1,41.1,0,0,1,6.192-2.753,43.677,43.677,0,0,1,6.54-1.726,3.772,3.772,0,0,0-.548-1.786,4.225,4.225,0,0,1-.559-1.651c-.117-1.36-.155-2.716-.192-4.027v-.008c-.02-.714-.041-1.452-.074-2.193a19.487,19.487,0,0,1-7.88,1.319,54.1,54.1,0,0,1-7.881-.654C164.1,309.962,161.769,309.512,159.415,308.958Zm31.105,13.035a2.4,2.4,0,0,1-.316.175c.24.291.475.6.7.89a13.617,13.617,0,0,0,1.748,1.99l-.405-.628A24.521,24.521,0,0,0,190.52,321.992ZM11.22,98.573h0a7.908,7.908,0,0,1-1.614,3.233c.194,1.571.338,3.188.427,4.806.085,1.54.124,3.133.114,4.734-.017,2.95-.19,5.984-.528,9.275-.627,6.1-1.736,12.123-2.807,17.943v.007c-.829,4.5-1.687,9.161-2.283,13.7-.321,2.44-.545,4.664-.684,6.8-.156,2.391-.2,4.614-.145,6.794a59.1,59.1,0,0,0,.568,6.812,52.369,52.369,0,0,0,1.457,6.854,51.719,51.719,0,0,0,2.521,6.919A56.729,56.729,0,0,0,12,193.455a3.15,3.15,0,0,1,.684.433c.1-.064.2-.139.34-.236,1.3-2.289,2.7-4.583,4.28-7.013,1.41-2.164,2.935-4.386,4.661-6.794,3.207-4.474,6.64-8.923,9.959-13.225,4.543-5.888,9.241-11.977,13.428-18.216.688-1.34,1.513-2.657,2.388-4.052a32.169,32.169,0,0,0,4.093-8.137c-2.543-1-4.971-2.093-7.215-3.24a67.138,67.138,0,0,1-6.234-3.614,62.209,62.209,0,0,1-10.265-8.439,91.25,91.25,0,0,1-8.563-10.2c-2.75-3.735-5.515-7.877-8.341-12.147Zm269.387,50.339a24.032,24.032,0,0,0-4.738.522c-1.525.306-3,.7-4.638,1.153-5.115,1.4-9.673,2.546-13.936,3.516-5,1.137-9.61,2.034-14.106,2.744a7.692,7.692,0,0,0-.541.612.86.86,0,0,1-.049.97,6.784,6.784,0,0,0-.688,2.327,21.462,21.462,0,0,0-.12,2.47v0a12.785,12.785,0,0,1-.506,4.186,26.694,26.694,0,0,1-1.59,4.491,24.93,24.93,0,0,1-2.478,4.276,18.966,18.966,0,0,1-3.316,3.561,13.666,13.666,0,0,1-4.1,2.347,29.165,29.165,0,0,1,2.577,2.935,26.11,26.11,0,0,0,2.9,3.23,6.663,6.663,0,0,0,1.808.882,6.256,6.256,0,0,0,1.832.27A10.3,10.3,0,0,0,243.7,188a40.438,40.438,0,0,0,4.465-2.91c.642-.46,1.247-.893,1.83-1.284,7.443-5.248,15.162-10.643,23.6-16.493a49.781,49.781,0,0,1,4.454-3.077h0c1.78-1.146,3.621-2.33,5.184-3.57a11.02,11.02,0,0,0,3.4-3.83,5.082,5.082,0,0,0,.287-2.2,6.633,6.633,0,0,0-.57-2.1,13.468,13.468,0,0,0-2.564-3.649,2.956,2.956,0,0,1-1.016.154c-.307,0-.625-.03-.932-.058h0c-.277-.026-.564-.053-.843-.058-.126,0-.256,0-.385,0Zm-50.882,7.5c-.812,1.654-1.56,3.364-2.287,5.23-.649,1.667-1.266,3.42-1.886,5.359-1.18,3.692-2.2,7.558-3.1,10.969,1.075.3,2.121.685,3.132,1.061h0c.895.333,1.82.678,2.757.953a2.141,2.141,0,0,0,.468.051,4.1,4.1,0,0,0,2.184-.805,13.257,13.257,0,0,0,2.209-1.925,32.321,32.321,0,0,0,3.319-4.255,23.205,23.205,0,0,0,1.837-3.77,21.8,21.8,0,0,0,1.1-4.043,27.391,27.391,0,0,0,.215-2.766v0c.039-.888.079-1.806.206-2.689a9,9,0,0,1,.734-2.578,40.863,40.863,0,0,1-4.187.241,19.906,19.906,0,0,1-6.7-1.031Zm-124.044-18.33a.615.615,0,0,0-.607.436l-.808,2.429-.294.886h0c-1.451,4.368-2.952,8.885-4.5,13.3-1.737,4.955-3.35,9.255-4.933,13.147a.5.5,0,0,0,.031.493.7.7,0,0,0,1.186-.157c1.579-3.886,3.19-8.179,4.923-13.124,1.545-4.408,3.043-8.915,4.492-13.275l0-.007c.347-1.044.74-2.226,1.118-3.362a.539.539,0,0,0-.062-.509.68.68,0,0,0-.549-.261Zm49.657,8.119a.469.469,0,0,1,.358.18,3.991,3.991,0,0,1,.526,2.088,29.208,29.208,0,0,1,.007,3.365c-.106,2.352-.376,4.686-.442,5.182a26.34,26.34,0,0,1-.5,2.9c-.182.861-.37,1.751-.473,2.627a9.378,9.378,0,0,0,.021,2.631,20.9,20.9,0,0,0,3.882-6.819c.912-2.365,1.782-4.79,2.624-7.134.377-1.051.767-2.137,1.156-3.2a1.021,1.021,0,0,1,.39-.494.985.985,0,0,1,1.276.18.941.941,0,0,1,.176.814c-.082,3.941-.145,7.8-.208,11.735l-.047,2.934c0,.083-.008.189-.017.311v0c-.033.481-.077,1.14.16,1.394a.319.319,0,0,0,.242.1.714.714,0,0,0,.294-.077,16.879,16.879,0,0,0,3.114-4.827,29.686,29.686,0,0,0,1.874-5.99,41.866,41.866,0,0,0,.8-6.331,41.41,41.41,0,0,0-.1-5.85c-.749.018-1.494.027-2.212.027-2.408,0-4.732-.1-6.905-.3a57.114,57.114,0,0,1-6.8-1.032,45.431,45.431,0,0,1-6.572-1.939,38.724,38.724,0,0,1-6.215-3.027,49.049,49.049,0,0,1-3.292,9.238c-.82,1.891-1.668,3.846-2.333,5.81,3.129-.688,5.561-3.539,7.527-6.237l.056-.085c.091-.14.181-.284.277-.438a9.516,9.516,0,0,1,1.123-1.553,2.123,2.123,0,0,1,1.538-.758,2.242,2.242,0,0,1,.962.239c1,.578,1.519,1.686,1.6,3.387a24.347,24.347,0,0,1-.447,4.707,22.955,22.955,0,0,0-.348,2.855,50.36,50.36,0,0,1-1.675,8.1c-.318,1.2-.646,2.438-.928,3.672,1.744-1.19,2.548-3.246,3.325-5.233.257-.658.5-1.28.777-1.875l4.336-10.383C154.674,146.5,155.042,146.2,155.337,146.2ZM230.17,155.4c-.042.134-.093.275-.135.388l.013,0c.023,0,.05.01.075.017C230.144,155.647,230.159,155.517,230.17,155.4Zm-106.9-43.641c.033.889.069,1.795.1,2.671v.028c.176,4.478.359,9.107.267,13.646a64.732,64.732,0,0,1,6.888.914,47.428,47.428,0,0,1,5.408,1.353,62.08,62.08,0,0,1,8.244,3.389h0c1.424.673,2.769,1.309,4.238,1.914a39.3,39.3,0,0,0,4.8,1.644,42.169,42.169,0,0,0,6.008,1.15,65.122,65.122,0,0,0,7.877.433h0c1.151,0,2.365-.023,3.609-.07a7.261,7.261,0,0,0,2.2-3.6,36.687,36.687,0,0,0,1.474-5.988,56.256,56.256,0,0,0,.881-11.048,6.562,6.562,0,0,0-2.512-5.636,10.824,10.824,0,0,0-2.747-1.587,17.76,17.76,0,0,0-3.169-.941,1.357,1.357,0,0,1-.711.19,2.328,2.328,0,0,1-1.388-.534,2.125,2.125,0,0,1-.8-1.17,1.022,1.022,0,0,1,.109-.74,1.515,1.515,0,0,1,.749-.6,27.248,27.248,0,0,0,8.447-4.248,26.215,26.215,0,0,0-3.074-.529,27.592,27.592,0,0,0-3.036-.166,32.2,32.2,0,0,0-5.07.416,45.935,45.935,0,0,0-5,1.1c-3.316.909-6.661,2.143-9.9,3.337l-.067.025c-3.241,1.2-6.591,2.432-9.962,3.352a46.458,46.458,0,0,1-5.059,1.1,32.9,32.9,0,0,1-5.147.419,28.2,28.2,0,0,1-3.67-.237ZM45.432,13.849a55.65,55.65,0,0,0-9.154,1.693,57.565,57.565,0,0,0-8.78,3.181,29.715,29.715,0,0,0-3.719,1.341A27.243,27.243,0,0,0,20.462,21.8a26.466,26.466,0,0,0-5.5,4.522A29.789,29.789,0,0,0,10.848,32a37.634,37.634,0,0,0-2.867,6.551A55.266,55.266,0,0,0,5.4,53.129c-.124,2.413-.125,4.92,0,7.453.114,2.377.336,4.794.661,7.183A93.206,93.206,0,0,0,7.422,78.251a80.368,80.368,0,0,0,2.621,10.18,70.2,70.2,0,0,0,4.013,9.686,63.616,63.616,0,0,0,5.542,9,67.557,67.557,0,0,0,5.716,7.528,58.5,58.5,0,0,0,6.238,6.113,54.841,54.841,0,0,0,6.707,4.825,55.9,55.9,0,0,0,7.124,3.664,61.6,61.6,0,0,0,7.488,2.629,72.4,72.4,0,0,0,7.8,1.721c2.556.422,5.268.738,8.061.94,2.615.189,5.4.285,8.269.285,2.832,0,5.749-.088,8.917-.27,2.82-.162,5.773-.395,9.029-.711,6.044-.588,12.2-1.38,18.148-2.145l.108-.014,1.667-.214a4.6,4.6,0,0,1,2.139-.583,4.174,4.174,0,0,0,2.526-.844,1.211,1.211,0,0,1-.343-.181,3.453,3.453,0,0,0,1.184-2.124l.255.025c.154-3.28.137-6.572.121-9.757v0c-.01-1.984-.021-4.036.01-6.064-5.886-1.611-12.1-2.845-18.107-4.039h0c-5.873-1.167-11.946-2.373-17.761-3.938a2,2,0,0,1-1.182.368,5.67,5.67,0,0,1-2.226-.676c-.272-.124-.53-.241-.783-.339-3.314-1.407-6.765-2.789-10.258-4.109l-.862-.324c-2.516-.941-4.713-1.792-6.717-2.6l-.834-.339c-.225-.092-.507-.226-.833-.381a10.346,10.346,0,0,0-3.843-1.252,1.792,1.792,0,0,0-1.209.388l.112.241c.6,1.305,2.491,5.664,1.669,6.943a.785.785,0,0,1-.708.354,2.3,2.3,0,0,1-.787-.171,3.55,3.55,0,0,1-.956-1.166,13.463,13.463,0,0,1-.868-1.913c-.555-1.467-1.076-3.282-1.58-5.037h0A56.325,56.325,0,0,0,51.3,88.573a8.011,8.011,0,0,0-.942-1.774,1.466,1.466,0,0,0-1.043-.7A27.224,27.224,0,0,0,47.5,94.115a.921.921,0,0,1-.289.569.844.844,0,0,1-.566.246.659.659,0,0,1-.51-.251,5.4,5.4,0,0,1-1-2.093,5.9,5.9,0,0,1-.071-2.138,18.231,18.231,0,0,1,1.414-4.362,15.286,15.286,0,0,0,1.495-5.177,17.83,17.83,0,0,0-.059-2.773,24.578,24.578,0,0,0-.425-2.724c-.378-1.8-.927-3.612-1.458-5.361v0c-.466-1.533-.947-3.118-1.309-4.687l-.073-.355c-.118-.564-.243-1.135-.376-1.74-.325-1.476-.661-3-.889-4.485a17.126,17.126,0,0,1-.226-4.152l.691,2.6c.63,2.361,1.373,5.1,2.219,7.763.43,1.361.943,2.757,1.44,4.108h0a52.208,52.208,0,0,1,2.405,7.762,19.233,19.233,0,0,1,.393,3.96,14.519,14.519,0,0,1-.594,4.017,3.469,3.469,0,0,1,1.92.645,5.319,5.319,0,0,1,1.4,1.547A20.785,20.785,0,0,1,54.864,91.4a21.764,21.764,0,0,0,1.13,2.92,1.824,1.824,0,0,1,.939-.592,5.147,5.147,0,0,1,1.483-.183,18.164,18.164,0,0,1,3.786.514c1.318.294,2.871.725,4.616,1.279,3.21,1.02,6.493,2.267,9.131,3.269,1.723.654,3.084,1.171,3.9,1.425l.766-.868c2.12-2.4,4.191-4.727,6.235-6.834a55.75,55.75,0,0,1,6.042-5.507,26.089,26.089,0,0,1,6.279-3.675,19.2,19.2,0,0,1,3.364-.992,18.68,18.68,0,0,1,3.585-.345c4.542,0,9.514,1.6,15.2,4.881a69.331,69.331,0,0,1-1.863-7.508c-.459-2.383-.833-4.886-1.143-7.653-.576-5.136-.834-10.389-1.084-15.47l0-.083c-.041-.834-.084-1.7-.127-2.543a19.2,19.2,0,0,0-.1-2.7,28.448,28.448,0,0,1-.122-3.693c.082-1.307.382-2.115.916-2.472a3.392,3.392,0,0,1,.868.255v1.1a34.191,34.191,0,0,0,.169,3.724,4.768,4.768,0,0,0,.832,2.73l.41,4.211c.513,5.226,1.086,10.8,1.958,16.371.454,2.9.947,5.547,1.508,8.092.623,2.825,1.311,5.436,2.1,7.981,1.91,1.066,3.852,2.239,5.773,3.488,1.823,1.185,3.687,2.477,5.539,3.84,3.388,2.492,6.815,5.267,10.477,8.483l.769-.28.777-.284.033-.012c5.665-2.075,12.085-4.428,18.234-4.428a21.2,21.2,0,0,1,4,.366,17.716,17.716,0,0,1,3.862,1.208,11.3,11.3,0,0,0-.685-3.134,15.011,15.011,0,0,0-1.447-2.885c-1.429-.354-2.486-1.551-3.509-2.709-.365-.414-.71-.8-1.07-1.157-1.522-1.632-3.084-3.279-4.6-4.871l-.012-.012,0,0c-2.834-2.988-5.766-6.077-8.556-9.2-1.476-1.585-2.915-3.282-4.4-5.19-1.324-1.7-2.655-3.529-4.069-5.591-2.626-3.83-5.146-7.909-7.584-11.852l0,0c-2.41-3.9-4.9-7.932-7.5-11.734-1.4-2.046-2.715-3.863-4.024-5.554-1.469-1.9-2.892-3.591-4.349-5.175a60.045,60.045,0,0,0-4.783-4.668,49.046,49.046,0,0,0-5.324-4.034,43.4,43.4,0,0,0-12.7-5.654,16.264,16.264,0,0,1-2.5,7.053,16.359,16.359,0,0,1-4.977,4.832,22.59,22.59,0,0,1-6.637,2.778,30.757,30.757,0,0,1-7.477.889,34.117,34.117,0,0,1-6.723-.668,29.672,29.672,0,0,1-6.153-1.925l-.465-.178c-2.183-.841-4.076-1.663-5.787-2.513a38.859,38.859,0,0,1-5.51-3.274,27.144,27.144,0,0,1-2.448-1.985,21.619,21.619,0,0,1-2.135-2.251A18.041,18.041,0,0,1,47.936,18.2a16.289,16.289,0,0,1-1.267-2.858l-.111-.234C46.292,14.556,45.963,13.959,45.432,13.849ZM174.077,105.09h0a31.48,31.48,0,0,1-6.294,3.476,1.481,1.481,0,0,1-.231.731,17.238,17.238,0,0,1,4.352.849,10.656,10.656,0,0,1,1.982.919,8.4,8.4,0,0,1,1.714,1.356c.1-.751.2-1.55.273-2.348a7.094,7.094,0,0,0-.212-2.811,4.11,4.11,0,0,0-1.583-2.174ZM85.1,102.85a.721.721,0,0,1,.1.232c.511.054,1.028.113,1.537.175ZM8.368,89.2h0c.086.572.171,1.171.259,1.832l.081.612L8.72,91.6a.948.948,0,0,1,.224-.407l.035-.036C8.767,90.508,8.561,89.853,8.368,89.2Zm92.245-72.3c.021.176.034.372.041.6.227,0,.5,0,.776.01A4.189,4.189,0,0,1,100.612,16.9ZM9.533,169.652h0a.314.314,0,0,1-.343-.308,4.482,4.482,0,0,1,.67-2c.452-.9,1.13-2.049,2.017-3.429,2.018-3.14,4.6-6.667,6.413-9.074,2.344-3.114,4.828-6.248,6.814-8.6,2.094-2.477,3.475-3.9,3.89-4.006a1.749,1.749,0,0,1,.451-.076c.17,0,.28.052.326.155.31.692-2.225,3.522-3.9,5.394h0l0,0a18.166,18.166,0,0,0-1.33,1.56c-4.631,5.457-8.911,11.259-13.251,17.219l-1.293,1.777c-.116.168-.686,1.016-.567,1.241a.114.114,0,0,0,.111.056.388.388,0,0,0,.1-.014l.014,0a.045.045,0,0,1,.044.034.051.051,0,0,1-.02.059A.792.792,0,0,1,9.533,169.652ZM9.639,155.4h0c-.064-.048-.063-.177.005-.383.439-1.329,3.639-5.857,7.286-10.309,1.9-2.323,3.668-4.306,5.1-5.735a20.473,20.473,0,0,1,2.046-1.829,2.788,2.788,0,0,1,1.377-.685.4.4,0,0,1,.32.136,1.449,1.449,0,0,1,.086,1.1c-2.376,2.806-4.975,5.495-7.488,8.1h0c-2.958,3.061-6.017,6.227-8.735,9.6Zm36.378-33.6a1.165,1.165,0,0,1-.8-.331,7.92,7.92,0,0,1-1.382-2.175,7.334,7.334,0,0,1-.545-2.3,10.5,10.5,0,0,1,.875-4.719,21.176,21.176,0,0,1,2.585-4.468,33.878,33.878,0,0,1,3.2-3.719.025.025,0,0,1,.019-.009.034.034,0,0,1,.029.018.024.024,0,0,1,0,.026,26.987,26.987,0,0,0-2.461,3.62,17.406,17.406,0,0,0-1.669,4.006,9.826,9.826,0,0,0,1.2,8.278,1.216,1.216,0,0,1,.158.62,1.128,1.128,0,0,1-.16.545A1.25,1.25,0,0,1,46.017,121.791ZM26.154,105.7a1.548,1.548,0,0,1-1.275-.661,5.122,5.122,0,0,1-.538-1.588,4.7,4.7,0,0,1,.018-1.542,7.2,7.2,0,0,1,1.347-2.94,18.8,18.8,0,0,1,2.5-2.739c.946-.878,1.96-1.715,2.94-2.525h0a31.617,31.617,0,0,0,3.564-3.228,17.6,17.6,0,0,1,1.549-1.4c1.25-1.045,2.542-2.126,2.907-3.742l.023-.108a.108.108,0,0,1,.109-.095.089.089,0,0,1,.065.026.092.092,0,0,1,.023.069,5.854,5.854,0,0,1-1.9,3.508l-.008.01c-.1.116-.209.236-.311.354L32.777,94.16c-.415.5-.853.986-1.317,1.5l0,0a22.727,22.727,0,0,0-3.048,3.927,7.794,7.794,0,0,0-.858,2.227,6.279,6.279,0,0,0-.016,2.495,1.345,1.345,0,0,1-.372.987A1.419,1.419,0,0,1,26.154,105.7Zm118.127-18.33a.415.415,0,0,1-.384-.3.4.4,0,0,1,.171-.459c1.716-1.208,3.433-2.467,5.093-3.685l.05-.037.054,0c.067,0,.107.018.119.052.1.286-1.661,1.7-3.077,2.83a16.578,16.578,0,0,0-1.744,1.483A.432.432,0,0,1,144.281,87.372ZM130.134,76.985a.145.145,0,0,1-.127-.1.1.1,0,0,1,.033-.121l.327-.258c.293-.233.589-.47.875-.7a29.917,29.917,0,0,1,7.131-4.674.7.7,0,0,1,.266-.055.66.66,0,0,1,.467.2.967.967,0,0,1,.256.467A.723.723,0,0,1,139,72.6c-.948.463-1.927.888-2.873,1.3a33.586,33.586,0,0,0-5.93,3.063A.107.107,0,0,1,130.134,76.985ZM27.345,65.58c-.831,0-2.771-1.266-4.188-2.19a11.479,11.479,0,0,0-1.643-.986,25.336,25.336,0,0,0-4.229-1.9,21.982,21.982,0,0,1-5.273-2.555,6.684,6.684,0,0,1-1.824-1.981,5.726,5.726,0,0,1-.551-1.284,6.657,6.657,0,0,1-.25-1.524A6.223,6.223,0,0,0,12.7,57.278,25.162,25.162,0,0,0,17.991,59.3l.159.047,1.084.412a38.625,38.625,0,0,1,4.541,1.991,14.054,14.054,0,0,1,3.9,2.968c.107.345.11.589.009.725A.393.393,0,0,1,27.345,65.58Z" transform="translate(56)"/>
    </g>
    <g id="Grupo_2" data-name="Grupo 2" transform="translate(4412.905 -150)">
      <g id="head_Short_4" data-name="head/Short 4" transform="translate(0.44 -0.38)">
        <path id="_Background-2" data-name="ðŸŽ¨ Background" d="M69.413,31.6c-.439-3.856.129-11.915.167-12.4C69.821,16.1,68.371,3.873,65.629,5,61.03,1.359,54.9.555,49.177.171c-11.9-.8-24.555,1.034-33.742,9.041-4.543,4.158-8.967,10.206-8.611,16.5C2.7,31.683-3.124,39.871,2.02,46.849c1.748,2.229,4.527,3.06,6.723,4.748,4.418,3.563,7.189,8.677,11.649,12.219,11.815,10.617,31.876,12.834,43.484.759C72.851,55.829,71.4,42.745,69.821,31.6,68.76,24.1,70.27,39.118,69.413,31.6Z" transform="translate(13.25 30.372)" fill="#fff"/>
        <path id="_Ink-2" data-name="ðŸ– Ink" d="M51.025,90.356a27.324,27.324,0,0,1-3.879-.285,21.493,21.493,0,0,1-4.381-1.06,8.307,8.307,0,0,1-2.053-1.084,9.219,9.219,0,0,1-1.671-1.6,1.283,1.283,0,0,1-.138-1.288.788.788,0,0,1,.74-.481,1.056,1.056,0,0,1,.127.008,24.088,24.088,0,0,1,4.286.841l.2.065a21.225,21.225,0,0,0,4.391.942c.753.073,1.517.11,2.27.11a22.511,22.511,0,0,0,6.8-1.037,19.752,19.752,0,0,0,3.433-1.463,21.108,21.108,0,0,0,3.11-2.065,22.069,22.069,0,0,0,4.944-5.565,21.6,21.6,0,0,0,2.9-7.942,48.777,48.777,0,0,0,.527-8.5c-.047-6.093-.245-12.468-.589-18.947l-.057-1.052c-.146-2.668-.334-6.187-.5-9.746-.055-1.192-.133-2.166-.247-3.064a8.067,8.067,0,0,1-2.917-2.811,28.747,28.747,0,0,1-4.167,1.311,24.947,24.947,0,0,1-5.95.731,23.481,23.481,0,0,1-3.5-.262c-.844.349-1.717.66-2.595.925-.244.108-.484.212-.713.31a43.3,43.3,0,0,1-6.509,2.238l-.55.137a22.5,22.5,0,0,1-3.71.666,5.41,5.41,0,0,1-.671.206,10.906,10.906,0,0,1-2.571.306c-.307,0-.618-.013-.924-.039a1.726,1.726,0,0,1-1.388-.9,1.418,1.418,0,0,1-.164-.685,1.522,1.522,0,0,1,.217-.745c.453-.778.92-1.57,1.388-2.354a43.737,43.737,0,0,1-4.994,1.716c-1.507.424-3.152.825-5.176,1.26-.459.1-.927.192-1.38.283h0c-.46.092-.935.188-1.4.287-.148.031-.312.059-.486.089a3.95,3.95,0,0,0-1.734.561,3.441,3.441,0,0,0-.843,1.769c-.051.186-.1.362-.149.516-.317.953-.589,1.837-.832,2.7a56.137,56.137,0,0,0-1.245,5.514,52.905,52.905,0,0,0-.659,5.626c-.049.777-.07,1.568-.09,2.334-.028,1.091-.057,2.219-.171,3.321a1.309,1.309,0,0,1-.393.82,1.121,1.121,0,0,1-.77.312,1.2,1.2,0,0,1-.8-.32c-.089-.078-.184-.163-.278-.247l-.138-.126A14.063,14.063,0,0,1,13.11,50.6c-.1-.132-.19-.272-.279-.418a.067.067,0,0,1-.041-.014l-.15-.113a7.3,7.3,0,0,0-4.022-1.764,2.428,2.428,0,0,0-1.989.975,6.33,6.33,0,0,0-.992,2.274l-.382,1.428a24.8,24.8,0,0,0-.615,2.823,10.81,10.81,0,0,0-.008,3.315,6.051,6.051,0,0,0,1.325,3,3.748,3.748,0,0,0,2.3,1.3,2.884,2.884,0,0,0,.4.026,7.015,7.015,0,0,0,.912-.08h.006l.186-.024a3.058,3.058,0,0,1,.381-.022c.135,0,.271.006.4.012h0c.133.006.27.013.406.013.114,0,.217,0,.313-.014.031,0,.062,0,.092,0a.808.808,0,0,1,.7.4,1.166,1.166,0,0,1,.063,1.094,3.7,3.7,0,0,1-.573.846,6.611,6.611,0,0,1,.5.485,2.513,2.513,0,0,1,1.225.915,2.077,2.077,0,0,1,.416,1.133c.026.091.05.188.075.306l.437.71c.107.174.2.324.288.46A22.159,22.159,0,0,0,18.375,74.3c.547.5,1.121.985,1.675,1.455a37.479,37.479,0,0,1,2.795,2.538l.164.171a10.7,10.7,0,0,1,1.751,2.267,3.693,3.693,0,0,1,.4,2.731.956.956,0,0,1-.89.667A.693.693,0,0,1,23.854,84,10.219,10.219,0,0,1,21.7,81.537a15.518,15.518,0,0,0-1.361-1.753c-.661-.7-1.37-1.38-2.056-2.035h0c-.667-.637-1.356-1.3-2-1.978a15.908,15.908,0,0,1-2.949-4.409,2.374,2.374,0,0,1-1.634.668,2.238,2.238,0,0,1-1.234-.379,2.524,2.524,0,0,1-.861-.972,7.722,7.722,0,0,1-.871.33,1.756,1.756,0,0,1-.513.08,1.515,1.515,0,0,1-1.284-.732,1.98,1.98,0,0,1-.3-.9,1.925,1.925,0,0,1,.164-.966,6.171,6.171,0,0,1,1.184-1.769,7.507,7.507,0,0,1-4.04-1.963A8.29,8.29,0,0,1,1.662,60.37a12.234,12.234,0,0,1-.224-2.5,15.756,15.756,0,0,1,.232-2.5,24.8,24.8,0,0,1,1.478-5.118c.128-.312.251-.59.377-.85a.265.265,0,0,1-.2-.1c-.154-.21-.321-.41-.483-.6a5.9,5.9,0,0,1-.85-1.2c-.068-.139-.138-.281-.207-.418A15.5,15.5,0,0,1,1.1,45.557,18.793,18.793,0,0,1,.19,41.264,32.325,32.325,0,0,1,.431,32.55a34.814,34.814,0,0,1,1.921-7.2,35.392,35.392,0,0,1,3.38-6.607,2.366,2.366,0,0,1-.42-.281L5.248,18.4l-.106-.1a1.743,1.743,0,0,1-.554-1.268,2.005,2.005,0,0,1,.554-1.448l.223-.223a5.909,5.909,0,0,1,.981-.807c.066-.044.135-.087.205-.127A1.95,1.95,0,0,1,6.4,12.912a2.024,2.024,0,0,1,1.019-1.249,3.585,3.585,0,0,1,1.693-.373,6.055,6.055,0,0,1,2.523.575A32.623,32.623,0,0,1,18.246,7.28a63.3,63.3,0,0,1,9.028-3.811A77.942,77.942,0,0,1,36.749.943,43.038,43.038,0,0,1,45.283,0c.391,0,.783.007,1.165.021l.25.01A28.684,28.684,0,0,1,50.653.4a9.751,9.751,0,0,1,3.72,1.364.466.466,0,0,1,.326-.14.4.4,0,0,1,.173.039,60.942,60.942,0,0,0,7.4,2.762l.591.192a36.152,36.152,0,0,0,8.2,1.666,1.7,1.7,0,0,1,.814.293,1.647,1.647,0,0,1,.557.632,1.282,1.282,0,0,1-.09,1.307c-.163.25-.32.5-.465.731l.231-.024h0l.536-.056c.037,0,.074-.006.111-.006a1.5,1.5,0,0,1,1.065.509,1.576,1.576,0,0,1,.458,1.132,15.2,15.2,0,0,1-.169,1.529h.059a2.272,2.272,0,0,1,.889.172,2.162,2.162,0,0,1,1.3,1.683,8,8,0,0,1,.039,2.249,9.323,9.323,0,0,1-2.259,5.51,8.755,8.755,0,0,1,1.3,1.743,9.491,9.491,0,0,1,.863,2.075,9.8,9.8,0,0,1,.4,3.4l-.027.341A5.464,5.464,0,0,1,75.467,33a1.9,1.9,0,0,1-1.364.582c-.063,0-.128,0-.191-.009.326,2.869.539,5.808.728,8.571l.092,1.365c.254,3.836.424,6.989.535,9.923.137,3.6.184,6.845.143,9.932a42.462,42.462,0,0,1-.3,4.587,31.649,31.649,0,0,1-.858,4.444A25.4,25.4,0,0,1,72.7,76.623a22.727,22.727,0,0,1-2.383,3.934,25.605,25.605,0,0,1-2.857,3.187A25.169,25.169,0,0,1,64.122,86.4a24.278,24.278,0,0,1-3.745,2.037,23.252,23.252,0,0,1-4.069,1.338A23.728,23.728,0,0,1,51.025,90.356ZM12.844,59.276H12.81A2.195,2.195,0,0,1,11.4,58.71a7.077,7.077,0,0,1-1.02-1.191c-.1-.14-.209-.284-.317-.422a1.4,1.4,0,0,1-.341.416l-.094.073A1.714,1.714,0,0,1,8.607,58H8.552a2.008,2.008,0,0,1-.84-.226,1.522,1.522,0,0,1-.692-.809,1.743,1.743,0,0,1,.623-2.071l-.123-.084a2.464,2.464,0,0,1-.691-.662l-.042-.068H6.8a.661.661,0,0,1,.379-.974,1.981,1.981,0,0,1,.615-.091,6.731,6.731,0,0,1,2.6.806l.235.109a13.945,13.945,0,0,1,3.255,2.257,1.81,1.81,0,0,1,.465,1.759l-.007.036c-.01.049-.02.1-.032.151a1.394,1.394,0,0,1-.545.812A1.57,1.57,0,0,1,12.844,59.276Z" transform="translate(9.783 13.25)"/>
      </g>
      <g id="facial-hair_Full" data-name="facial-hair/Full" transform="translate(25.44 66.62)">
        <path id="_Ink-3" data-name="ðŸ– Ink" d="M41.468,38h0c-1.674,0-3.345-.162-4.819-.305a54.683,54.683,0,0,1-12.193-2.667c-1.849-.623-3.755-1.365-5.829-2.268l-.854-.368a39.767,39.767,0,0,1-4.783-2.309,18.445,18.445,0,0,1-3.472-3l0,0c-.187-.191-.38-.388-.568-.576a63.434,63.434,0,0,1-5.537-6.187A20.01,20.01,0,0,1,1.4,17.253,11.222,11.222,0,0,1,.267,13.786c-.615-4.011-.047-8.2.5-12.25C.813,1.218.858.888.9.564A.177.177,0,0,1,1.071.421a.1.1,0,0,1,.1.075C1.171.43,1.167.36,1.162.27A.249.249,0,0,1,1.228.082.283.283,0,0,1,1.433,0a.277.277,0,0,1,.274.2A24.182,24.182,0,0,0,7.053,9.708,29.415,29.415,0,0,0,9.545,12.1c.821.7,1.708,1.4,2.713,2.124,1.865,1.347,3.857,2.592,5.783,3.8h0c.4.25.814.509,1.22.765a1.036,1.036,0,0,1,.506-.27A11.4,11.4,0,0,1,21.6,14.542a17.652,17.652,0,0,1,2.888-3.2A24.142,24.142,0,0,1,39.914,5.632a20.351,20.351,0,0,1,3.823.355,17.735,17.735,0,0,1,3.635,1.1A15.762,15.762,0,0,1,51.63,9.8a15.969,15.969,0,0,1,3.2,3.907,16.728,16.728,0,0,1,1.3,2.8c.158.443,1.388,5.4.612,8.24a21.205,21.205,0,0,1-1.538,3.966,24.425,24.425,0,0,1-2.257,3.623,13.891,13.891,0,0,1-5.982,4.78,12.257,12.257,0,0,1-2.681.693A19.193,19.193,0,0,1,41.468,38ZM39.09,11.051a22.968,22.968,0,0,0-5.618.633A14.626,14.626,0,0,0,27.824,14.5a13.525,13.525,0,0,0-2.187,2.243,12.5,12.5,0,0,0-1.585,2.7A7.209,7.209,0,0,0,24.116,22a18.978,18.978,0,0,0,4.913,2.489,17.138,17.138,0,0,0,5.421.9,16.142,16.142,0,0,0,1.861-.108c.288-.358.581-.766.891-1.2a18.122,18.122,0,0,1,1.868-2.328,4.267,4.267,0,0,1,2.358-1.336,3.249,3.249,0,0,1,.465-.034A3.526,3.526,0,0,1,43.829,21,12.527,12.527,0,0,1,45.5,22.388a10.986,10.986,0,0,0,1.914,1.537c.1.059.223.121.362.188a7.511,7.511,0,0,0,3.68-1.149,3.685,3.685,0,0,0,1.211-1.325,5.215,5.215,0,0,0,.524-1.66c-.056-.226-.117-.456-.183-.685a17.7,17.7,0,0,0-.845-2.344,13,13,0,0,0-1.22-2.168,8.268,8.268,0,0,0-1.4-1.558,6.356,6.356,0,0,0-1.783-1.085,16.75,16.75,0,0,0-4.552-.857l-.363-.035C41.476,11.116,40.25,11.051,39.09,11.051Z" transform="translate(0)"/>
      </g>
    </g>
  </g>
</svg>
